<?xml version="1.0" encoding="UTF-8" standalone="no"?>
<svg
   width="16"
   height="16"
   fill="currentColor"
   class="bi bi-exclude"
   viewBox="0 0 16 16"
   version="1.1"
   id="svg4"
   sodipodi:docname="exclude.svg"
   inkscape:export-filename="512.png"
   inkscape:export-xdpi="3072"
   inkscape:export-ydpi="3072"
   inkscape:version="1.2.1 (9c6d41e410, 2022-07-14)"
   xmlns:inkscape="http://www.inkscape.org/namespaces/inkscape"
   xmlns:sodipodi="http://sodipodi.sourceforge.net/DTD/sodipodi-0.dtd"
   xmlns="http://www.w3.org/2000/svg"
   xmlns:svg="http://www.w3.org/2000/svg">
  <defs
     id="defs8" />
  <sodipodi:namedview
     id="namedview6"
     pagecolor="#ffffff"
     bordercolor="#666666"
     borderopacity="1.0"
     inkscape:showpageshadow="2"
     inkscape:pageopacity="0.0"
     inkscape:pagecheckerboard="0"
     inkscape:deskcolor="#d1d1d1"
     showgrid="false"
     inkscape:zoom="14.75"
     inkscape:cx="-2.1355932"
     inkscape:cy="8"
     inkscape:window-width="1920"
     inkscape:window-height="1019"
     inkscape:window-x="0"
     inkscape:window-y="24"
     inkscape:window-maximized="1"
     inkscape:current-layer="svg4" />
  <path
     d="M0 2a2 2 0 0 1 2-2h8a2 2 0 0 1 2 2v2h2a2 2 0 0 1 2 2v8a2 2 0 0 1-2 2H6a2 2 0 0 1-2-2v-2H2a2 2 0 0 1-2-2V2zm12 2H5a1 1 0 0 0-1 1v7h7a1 1 0 0 0 1-1V4z"
     id="path2"
     style="fill:#ff6c37;fill-opacity:1" />
</svg>
